<?xml version="1.0" encoding="UTF-8" standalone="no"?>
<!-- Created with Inkscape (http://www.inkscape.org/) -->

<svg
   width="1536"
   height="960"
   viewBox="0 0 406.4 253.99999"
   version="1.1"
   id="svg5"
   inkscape:version="1.2.2 (b0a8486541, 2022-12-01)"
   sodipodi:docname="disk-01.svg"
   xml:space="preserve"
   xmlns:inkscape="http://www.inkscape.org/namespaces/inkscape"
   xmlns:sodipodi="http://sodipodi.sourceforge.net/DTD/sodipodi-0.dtd"
   xmlns="http://www.w3.org/2000/svg"
   xmlns:svg="http://www.w3.org/2000/svg"><sodipodi:namedview
     id="namedview7"
     pagecolor="#505050"
     bordercolor="#eeeeee"
     borderopacity="1"
     inkscape:showpageshadow="0"
     inkscape:pageopacity="0"
     inkscape:pagecheckerboard="0"
     inkscape:deskcolor="#505050"
     inkscape:document-units="px"
     showgrid="false"
     inkscape:zoom="0.5946522"
     inkscape:cx="821.48859"
     inkscape:cy="433.86706"
     inkscape:window-width="1920"
     inkscape:window-height="1034"
     inkscape:window-x="1440"
     inkscape:window-y="0"
     inkscape:window-maximized="1"
     inkscape:current-layer="layer1" /><defs
     id="defs2"><marker
       style="overflow:visible"
       id="Arrow2"
       refX="0"
       refY="0"
       orient="auto-start-reverse"
       inkscape:stockid="Arrow2"
       markerWidth="7.6999998"
       markerHeight="5.5999999"
       viewBox="0 0 7.7 5.6"
       inkscape:isstock="true"
       inkscape:collect="always"
       preserveAspectRatio="xMidYMid"><path
         transform="scale(0.7)"
         d="M -2,-4 9,0 -2,4 c 2,-2.33 2,-5.66 0,-8 z"
         style="fill:context-stroke;fill-rule:evenodd;stroke:none"
         id="arrow2L" /></marker><clipPath
       clipPathUnits="userSpaceOnUse"
       id="clipPath10056"><rect
         style="fill:#0000ff;fill-rule:evenodd;stroke-width:0.264583"
         id="rect10058"
         width="228.25888"
         height="40.212254"
         x="255.39943"
         y="51.55777" /></clipPath><clipPath
       clipPathUnits="userSpaceOnUse"
       id="clipPath10071"><rect
         style="fill:#0000ff;fill-rule:evenodd;stroke-width:0.264583"
         id="rect10073"
         width="228.7899"
         height="28.416531"
         x="254.86841"
         y="183.11127" /></clipPath></defs><g
     inkscape:label="Camada 1"
     inkscape:groupmode="layer"
     id="layer1"><rect
       style="fill:#212749;fill-opacity:1;fill-rule:evenodd;stroke-width:0.264583"
       id="rect234"
       width="406.39999"
       height="254"
       x="0"
       y="-4.2307577e-22" /><g
       id="g3379"
       transform="matrix(0.81189752,0,0,0.81189752,110.95502,44.40589)"
       style="stroke-width:1.23168" /><g
       id="g3391"
       transform="translate(4.53735,-243.06562)"><g
         id="g3389"
         transform="matrix(0.81189752,0,0,0.81189752,111.57322,257.39747)"
         style="stroke-width:1.23168" /></g><g
       id="g3401"
       transform="translate(-201.83772,-243.06562)" /><g
       id="g7549"
       transform="matrix(1.575313,0,0,1.575313,-53.359361,-46.086437)"
       style="stroke-width:0.634794"><g
         id="g8038"
         style="stroke-width:0.634794" /></g><g
       id="g3786"
       transform="translate(58.208337,87.730348)" /><text
       xml:space="preserve"
       style="font-size:12.5249px;line-height:1.25;font-family:Carlito;-inkscape-font-specification:Carlito;text-align:center;text-decoration-color:#000000;text-anchor:middle;fill:#d7d7f4;fill-opacity:1;stroke-width:0.264583;-inkscape-stroke:none;stop-color:#000000"
       x="202.989"
       y="37.788418"
       id="text3291"><tspan
         sodipodi:role="line"
         id="tspan3289"
         style="font-size:12.5249px;fill:#d7d7f4;fill-opacity:1;stroke-width:0.264583"
         x="202.989"
         y="37.788418">LAYOUT DE DISCOs</tspan></text><g
       id="g4465"
       transform="translate(-5.754786,-12.96006)"><g
         id="g3527"><g
           id="g3492"><path
             id="path2961"
             style="fill:#2e3868;fill-opacity:1;fill-rule:evenodd;stroke:#969ed0;stroke-width:0.264583;stroke-opacity:1"
             d="m 214.76195,184.90815 a 61.900121,16.178211 0 0 0 -61.69736,16.21316 61.900121,16.178211 0 0 0 61.9671,16.14318 61.900121,16.178211 0 0 0 61.83286,-16.1786 l -6.3e-4,-0.0709 a 61.900121,16.178211 0 0 0 -62.10197,-16.10688 z m 0.15724,12.70528 a 13.816714,3.4729054 0 0 1 13.86201,3.45777 v 0.015 a 13.816714,3.4729054 0 0 1 -13.80192,3.47332 13.816714,3.4729054 0 0 1 -13.83133,-3.46554 13.816714,3.4729054 0 0 1 13.77124,-3.48024 z" /><path
             style="fill:none;fill-opacity:1;fill-rule:evenodd;stroke:#d4aa00;stroke-width:0.264581;stroke-opacity:1"
             d="m 214.81253,192.07346 a 46.42798,9.0128697 0 0 0 -46.27588,9.03233 46.42798,9.0128697 0 0 0 46.47822,8.99335 46.42798,9.0128697 0 0 0 46.37753,-9.01308 l -4.8e-4,-0.0395 a 46.42798,9.0128697 0 0 0 -46.57939,-8.97312 z"
             id="path3398" /><g
             id="g2971"
             style="stroke:#969ed0;stroke-width:0.598282;stroke-opacity:1"
             transform="matrix(1.6709447,0.04607282,0,1.6719626,-99.120276,-13.562644)"><path
               id="path2963"
               style="fill:#4d4d4d;fill-opacity:1;stroke:#969ed0;stroke-width:0.158545;stroke-linecap:round;stroke-linejoin:round;stroke-dasharray:none;stroke-opacity:1"
               d="m 140.54646,124.2195 -3.70417,2.84713 14.7221,-1.08937 a 9.6722398,37.060076 88.306139 0 1 -0.64079,-1.73365 9.6722398,37.060076 88.306139 0 1 0.007,-0.0617 z" /><path
               style="fill:#808080;stroke:#969ed0;stroke-width:0.158545;stroke-linecap:round;stroke-linejoin:round;stroke-dasharray:none;stroke-opacity:1"
               d="m 140.5465,122.10265 36.57538,-0.13229 -40.27955,2.97986 z"
               id="path2965"
               sodipodi:nodetypes="cccc" /><path
               style="fill:#666666;fill-opacity:1;stroke:#969ed0;stroke-width:0.158545;stroke-linecap:round;stroke-linejoin:round;stroke-dasharray:none;stroke-opacity:1"
               d="m 136.84233,124.95022 v 2.11665 l 7.02738,-0.51988 0.065,-2.12146 z"
               id="path2967" /><path
               style="fill:#333333;stroke:#969ed0;stroke-width:0.158545;stroke-linecap:round;stroke-linejoin:round;stroke-dasharray:none;stroke-opacity:1"
               d="m 143.93471,124.42553 -0.065,2.12146 1.70228,-2.26423 z"
               id="path2969"
               sodipodi:nodetypes="cccc" /></g></g><g
           id="g3407"><path
             id="path2947"
             style="fill:#2e3868;fill-opacity:1;fill-rule:evenodd;stroke:#969ed0;stroke-width:0.264583;stroke-opacity:1"
             d="m 214.76195,163.0844 a 61.900121,16.178211 0 0 0 -61.69736,16.21315 61.900121,16.178211 0 0 0 61.9671,16.14318 61.900121,16.178211 0 0 0 61.83286,-16.17859 l -6.3e-4,-0.0709 a 61.900121,16.178211 0 0 0 -62.10197,-16.10689 z m 0.15724,12.70527 a 13.816714,3.4729054 0 0 1 13.86201,3.45777 v 0.0151 a 13.816714,3.4729054 0 0 1 -13.80192,3.47332 13.816714,3.4729054 0 0 1 -13.83133,-3.46555 13.816714,3.4729054 0 0 1 13.77124,-3.48024 z" /><path
             style="fill:none;fill-opacity:1;fill-rule:evenodd;stroke:#d4aa00;stroke-width:0.264581;stroke-opacity:1"
             d="m 214.81253,170.2497 a 46.42798,9.0128697 0 0 0 -46.27588,9.03233 46.42798,9.0128697 0 0 0 46.47822,8.99335 46.42798,9.0128697 0 0 0 46.37753,-9.01308 l -4.8e-4,-0.0395 a 46.42798,9.0128697 0 0 0 -46.57939,-8.97312 z"
             id="path3380" /><g
             id="g2957"
             style="stroke:#969ed0;stroke-width:0.598282;stroke-opacity:1"
             transform="matrix(1.6709447,0.04607282,0,1.6719626,-99.120276,-35.3864)"><path
               id="path2949"
               style="fill:#4d4d4d;fill-opacity:1;stroke:#969ed0;stroke-width:0.158545;stroke-linecap:round;stroke-linejoin:round;stroke-dasharray:none;stroke-opacity:1"
               d="m 140.54646,124.2195 -3.70417,2.84713 14.7221,-1.08937 a 9.6722398,37.060076 88.306139 0 1 -0.64079,-1.73365 9.6722398,37.060076 88.306139 0 1 0.007,-0.0617 z" /><path
               style="fill:#808080;stroke:#969ed0;stroke-width:0.158545;stroke-linecap:round;stroke-linejoin:round;stroke-dasharray:none;stroke-opacity:1"
               d="m 140.5465,122.10265 36.57538,-0.13229 -40.27955,2.97986 z"
               id="path2951"
               sodipodi:nodetypes="cccc" /><path
               style="fill:#666666;fill-opacity:1;stroke:#969ed0;stroke-width:0.158545;stroke-linecap:round;stroke-linejoin:round;stroke-dasharray:none;stroke-opacity:1"
               d="m 136.84233,124.95022 v 2.11665 l 7.02738,-0.51988 0.065,-2.12146 z"
               id="path2953" /><path
               style="fill:#333333;stroke:#969ed0;stroke-width:0.158545;stroke-linecap:round;stroke-linejoin:round;stroke-dasharray:none;stroke-opacity:1"
               d="m 143.93471,124.42553 -0.065,2.12146 1.70228,-2.26423 z"
               id="path2955"
               sodipodi:nodetypes="cccc" /></g></g><g
           id="g3390"><path
             id="path2933"
             style="fill:#2e3868;fill-opacity:1;fill-rule:evenodd;stroke:#969ed0;stroke-width:0.264583;stroke-opacity:1"
             d="m 214.76195,141.26064 a 61.900121,16.178211 0 0 0 -61.69736,16.21316 61.900121,16.178211 0 0 0 61.9671,16.14318 61.900121,16.178211 0 0 0 61.83286,-16.1786 l -6.3e-4,-0.0709 A 61.900121,16.178211 0 0 0 214.76195,141.2606 Z m 0.15724,12.70528 a 13.816714,3.4729054 0 0 1 13.86201,3.45777 v 0.0151 a 13.816714,3.4729054 0 0 1 -13.80192,3.47331 13.816714,3.4729054 0 0 1 -13.83133,-3.46554 13.816714,3.4729054 0 0 1 13.77124,-3.48024 z" /><path
             style="fill:none;fill-opacity:1;fill-rule:evenodd;stroke:#d4aa00;stroke-width:0.264581;stroke-opacity:1"
             d="m 214.81253,148.42592 a 46.42798,9.0128697 0 0 0 -46.27588,9.03233 46.42798,9.0128697 0 0 0 46.47822,8.99335 46.42798,9.0128697 0 0 0 46.37753,-9.01308 l -4.8e-4,-0.0395 a 46.42798,9.0128697 0 0 0 -46.57939,-8.97312 z"
             id="path3322" /><g
             id="g2943"
             style="stroke:#969ed0;stroke-width:0.598282;stroke-opacity:1"
             transform="matrix(1.6709447,0.04607282,0,1.6719626,-99.120276,-57.210154)"><path
               id="path2935"
               style="fill:#4d4d4d;fill-opacity:1;stroke:#969ed0;stroke-width:0.158545;stroke-linecap:round;stroke-linejoin:round;stroke-dasharray:none;stroke-opacity:1"
               d="m 140.54646,124.2195 -3.70417,2.84713 14.7221,-1.08937 a 9.6722398,37.060076 88.306139 0 1 -0.64079,-1.73365 9.6722398,37.060076 88.306139 0 1 0.007,-0.0617 z" /><path
               style="fill:#808080;stroke:#969ed0;stroke-width:0.158545;stroke-linecap:round;stroke-linejoin:round;stroke-dasharray:none;stroke-opacity:1"
               d="m 140.5465,122.10265 36.57538,-0.13229 -40.27955,2.97986 z"
               id="path2937"
               sodipodi:nodetypes="cccc" /><path
               style="fill:#666666;fill-opacity:1;stroke:#969ed0;stroke-width:0.158545;stroke-linecap:round;stroke-linejoin:round;stroke-dasharray:none;stroke-opacity:1"
               d="m 136.84233,124.95022 v 2.11665 l 7.02738,-0.51988 0.065,-2.12146 z"
               id="path2939" /><path
               style="fill:#333333;stroke:#969ed0;stroke-width:0.158545;stroke-linecap:round;stroke-linejoin:round;stroke-dasharray:none;stroke-opacity:1"
               d="m 143.93471,124.42553 -0.065,2.12146 1.70228,-2.26423 z"
               id="path2941"
               sodipodi:nodetypes="cccc" /></g></g><g
           id="g3372"><path
             id="path728"
             style="fill:#2e3868;fill-opacity:1;fill-rule:evenodd;stroke:#969ed0;stroke-width:0.264583;stroke-opacity:1"
             d="m 214.76195,119.43689 a 61.900121,16.178211 0 0 0 -61.69736,16.21315 61.900121,16.178211 0 0 0 61.9671,16.14318 61.900121,16.178211 0 0 0 61.83286,-16.17859 l -6.3e-4,-0.0709 a 61.900121,16.178211 0 0 0 -62.10197,-16.10689 z m 0.15724,12.70527 a 13.816714,3.4729054 0 0 1 13.86201,3.45777 v 0.0151 a 13.816714,3.4729054 0 0 1 -13.80192,3.47332 13.816714,3.4729054 0 0 1 -13.83133,-3.46555 13.816714,3.4729054 0 0 1 13.77124,-3.48024 z" /><path
             style="fill:none;fill-opacity:1;fill-rule:evenodd;stroke:#ff5555;stroke-width:0.264581;stroke-opacity:1"
             d="m 214.7925,123.93749 a 52.557238,11.677584 0 0 0 -52.38507,11.7028 52.557238,11.677584 0 0 0 52.6141,11.65231 52.557238,11.677584 0 0 0 52.50013,-11.67787 l -5.3e-4,-0.0512 a 52.557238,11.677584 0 0 0 -52.72863,-11.6261 z"
             id="path3264" /><path
             style="fill:none;fill-opacity:1;fill-rule:evenodd;stroke:#d4aa00;stroke-width:0.264581;stroke-opacity:1"
             d="m 214.81253,126.6022 a 46.42798,9.0128697 0 0 0 -46.27588,9.03232 46.42798,9.0128697 0 0 0 46.47822,8.99336 46.42798,9.0128697 0 0 0 46.37753,-9.01308 l -4.8e-4,-0.0395 a 46.42798,9.0128697 0 0 0 -46.57939,-8.97313 z"
             id="path3320" /><g
             id="g2429"
             style="stroke:#969ed0;stroke-width:0.598282;stroke-opacity:1"
             transform="matrix(1.6709447,0.04607282,0,1.6719626,-99.120276,-79.03391)"><path
               id="path1997"
               style="fill:#4d4d4d;fill-opacity:1;stroke:#969ed0;stroke-width:0.158545;stroke-linecap:round;stroke-linejoin:round;stroke-dasharray:none;stroke-opacity:1"
               d="m 140.54646,124.2195 -3.70417,2.84713 14.7221,-1.08937 a 9.6722398,37.060076 88.306139 0 1 -0.64079,-1.73365 9.6722398,37.060076 88.306139 0 1 0.007,-0.0617 z" /><path
               style="fill:#808080;stroke:#969ed0;stroke-width:0.158545;stroke-linecap:round;stroke-linejoin:round;stroke-dasharray:none;stroke-opacity:1"
               d="m 140.5465,122.10265 36.57538,-0.13229 -40.27955,2.97986 z"
               id="path1899"
               sodipodi:nodetypes="cccc" /><path
               style="fill:#666666;fill-opacity:1;stroke:#969ed0;stroke-width:0.158545;stroke-linecap:round;stroke-linejoin:round;stroke-dasharray:none;stroke-opacity:1"
               d="m 136.84233,124.95022 v 2.11665 l 7.02738,-0.51988 0.065,-2.12146 z"
               id="path2003" /><path
               style="fill:#333333;stroke:#969ed0;stroke-width:0.158545;stroke-linecap:round;stroke-linejoin:round;stroke-dasharray:none;stroke-opacity:1"
               d="m 143.93471,124.42553 -0.065,2.12146 1.70228,-2.26423 z"
               id="path2419"
               sodipodi:nodetypes="cccc" /></g></g></g><path
         style="fill:none;stroke:#ffffff;stroke-width:0.264583px;stroke-linecap:butt;stroke-linejoin:miter;stroke-opacity:1;marker-start:url(#Arrow2)"
         d="M 193.68955,130.37717 163.18798,105.9398 h -21.45266"
         id="path3005"
         sodipodi:nodetypes="ccc" /><text
         xml:space="preserve"
         style="font-size:5.64444px;line-height:1.25;font-family:Carlito;-inkscape-font-specification:Carlito;text-align:center;text-decoration-color:#000000;text-anchor:middle;fill:#b3b3b3;stroke-width:0.264583;-inkscape-stroke:none;stop-color:#000000"
         x="109.34367"
         y="107.39777"
         id="text3256"><tspan
           sodipodi:role="line"
           id="tspan3254"
           style="font-size:5.64444px;fill:#b3b3b3;stroke-width:0.264583"
           x="109.34367"
           y="107.39777">Cabeçote de leitura (<tspan
   style="font-style:italic;font-size:5.64444px;fill:#b3b3b3"
   id="tspan3258">head</tspan>)</tspan></text><path
         style="fill:none;stroke:#ffffff;stroke-width:0.264582px;stroke-linecap:butt;stroke-linejoin:miter;stroke-opacity:1;marker-start:url(#Arrow2)"
         d="m 219.76539,121.18774 30.50157,-35.591073 h 42.61933"
         id="path3272"
         sodipodi:nodetypes="ccc" /><text
         xml:space="preserve"
         style="font-size:5.64444px;line-height:1.25;font-family:Carlito;-inkscape-font-specification:Carlito;text-align:center;text-decoration-color:#000000;text-anchor:middle;fill:#b3b3b3;stroke-width:0.264583;-inkscape-stroke:none;stop-color:#000000"
         x="310.35837"
         y="87.818596"
         id="text3280"><tspan
           sodipodi:role="line"
           id="tspan3278"
           style="font-size:5.64444px;fill:#b3b3b3;stroke-width:0.264583"
           x="310.35837"
           y="87.818596">Trilha (<tspan
   style="font-style:italic"
   id="tspan3282">track</tspan>)</tspan></text><path
         style="fill:none;stroke:#ffffff;stroke-width:0.264583px;stroke-linecap:butt;stroke-linejoin:miter;stroke-opacity:1;marker-start:url(#Arrow2)"
         d="m 274.68377,133.16051 14.5158,-10.32412 h 20.2827"
         id="path3286"
         sodipodi:nodetypes="ccc" /><path
         style="fill:none;stroke:#ffffff;stroke-width:0.264583px;stroke-linecap:butt;stroke-linejoin:miter;stroke-opacity:1;marker-start:url(#Arrow2)"
         d="m 274.68377,142.67978 14.5158,10.32412 h 20.2827"
         id="path3296"
         sodipodi:nodetypes="ccc" /><text
         xml:space="preserve"
         style="font-size:5.64444px;line-height:1.25;font-family:Carlito;-inkscape-font-specification:Carlito;text-align:center;text-decoration-color:#000000;text-anchor:middle;fill:#b3b3b3;stroke-width:0.264583;-inkscape-stroke:none;stop-color:#000000"
         x="325.914"
         y="124.37704"
         id="text3310"><tspan
           sodipodi:role="line"
           id="tspan3308"
           style="font-size:5.64444px;fill:#b3b3b3;stroke-width:0.264583"
           x="325.914"
           y="124.37704">Face (<tspan
   style="font-style:italic"
   id="tspan3312">head</tspan>)</tspan></text><text
         xml:space="preserve"
         style="font-size:5.64444px;line-height:1.25;font-family:Carlito;-inkscape-font-specification:Carlito;text-align:center;text-decoration-color:#000000;text-anchor:middle;fill:#b3b3b3;stroke-width:0.264583;-inkscape-stroke:none;stop-color:#000000"
         x="325.914"
         y="154.57359"
         id="text3318"><tspan
           sodipodi:role="line"
           id="tspan3316"
           style="font-size:5.64444px;fill:#b3b3b3;stroke-width:0.264583"
           x="325.914"
           y="154.57359">Face (<tspan
   style="font-style:italic"
   id="tspan3314">head</tspan>)</tspan></text><path
         style="fill:none;stroke:#d4aa00;stroke-width:0.264583px;stroke-linecap:butt;stroke-linejoin:miter;stroke-dasharray:0.529166, 1.05833;stroke-dashoffset:0;stroke-opacity:1"
         d="m 168.53665,135.63452 v 21.82373 21.82378 21.82376"
         id="path3529" /><path
         style="fill:none;stroke:#d4aa00;stroke-width:0.264583px;stroke-linecap:butt;stroke-linejoin:miter;stroke-dasharray:0.529166, 1.05833;stroke-dashoffset:0;stroke-opacity:1"
         d="m 261.39192,135.5753 v 21.82372 l 5.3e-4,21.86328 v 21.82376"
         id="path3531" /><path
         style="fill:none;stroke:#ffffff;stroke-width:0.264583px;stroke-linecap:butt;stroke-linejoin:miter;stroke-opacity:1;marker-start:url(#Arrow2)"
         d="m 262.62795,133.02305 30.50157,-24.43738 h 17.05521"
         id="path4371"
         sodipodi:nodetypes="ccc" /><text
         xml:space="preserve"
         style="font-size:5.64444px;line-height:1.25;font-family:Carlito;-inkscape-font-specification:Carlito;text-align:center;text-decoration-color:#000000;text-anchor:middle;fill:#b3b3b3;stroke-width:0.264583;-inkscape-stroke:none;stop-color:#000000"
         x="321.72891"
         y="110.12631"
         id="text4381"><tspan
           sodipodi:role="line"
           id="tspan4379"
           style="font-size:5.64444px;fill:#b3b3b3;stroke-width:0.264583"
           x="321.72891"
           y="110.12631">Cilindro</tspan></text><path
         id="path4385"
         style="opacity:0.36;fill:#008080;fill-rule:evenodd;stroke:#008080;stroke-width:0.264583"
         d="m 230.02678,119.90482 -11.53356,12.35249 c 3.36287,0.30643 6.29363,0.54018 8.06403,1.46818 l 38.30565,-7.56885 c -8.50015,-3.0994 -20.82577,-5.3114 -34.83612,-6.25182 z"
         sodipodi:nodetypes="ccccc" /><path
         style="fill:none;stroke:#ffffff;stroke-width:0.264583px;stroke-linecap:butt;stroke-linejoin:miter;stroke-opacity:1;marker-start:url(#Arrow2)"
         d="m 242.22525,121.89419 30.50157,-24.437383 h 37.16354"
         id="path4396"
         sodipodi:nodetypes="ccc" /><text
         xml:space="preserve"
         style="font-size:5.64444px;line-height:1.25;font-family:Carlito;-inkscape-font-specification:Carlito;text-align:center;text-decoration-color:#000000;text-anchor:middle;fill:#b3b3b3;stroke-width:0.264583;-inkscape-stroke:none;stop-color:#000000"
         x="318.99765"
         y="99.344521"
         id="text4404"><tspan
           sodipodi:role="line"
           id="tspan4402"
           style="font-size:5.64444px;fill:#b3b3b3;stroke-width:0.264583"
           x="318.99765"
           y="99.344521">Setor</tspan></text></g></g></svg>
