<svg version="1.1" xmlns="http://www.w3.org/2000/svg" viewBox="0 0 1253.9902520842065 1174.2998892021537" width="2507.980504168413" height="2348.5997784043075" filter="invert(93%) hue-rotate(180deg)">
  <!-- svg-source:excalidraw -->
  
  <defs>
    <style class="style-fonts">
      @font-face {
        font-family: "Virgil";
        src: url("https://excalidraw.com/Virgil.woff2");
      }
      @font-face {
        font-family: "Cascadia";
        src: url("https://excalidraw.com/Cascadia.woff2");
      }
      @font-face {
        font-family: "Assistant";
        src: url("https://excalidraw.com/Assistant-Regular.woff2");
      }
    </style>
    
  </defs>
  <rect x="0" y="0" width="1253.9902520842065" height="1174.2998892021537" fill="#ffffff"></rect><g stroke-linecap="round" transform="translate(155.16999158002727 155.07084562021697) rotate(0 130.96301346066844 35.80760874367647)"><path d="M0 0 C76.74 0, 153.48 0, 261.93 0 M0 0 C93.9 0, 187.81 0, 261.93 0 M261.93 0 C261.93 18.02, 261.93 36.04, 261.93 71.62 M261.93 0 C261.93 19.91, 261.93 39.82, 261.93 71.62 M261.93 71.62 C170.5 71.62, 79.08 71.62, 0 71.62 M261.93 71.62 C195.09 71.62, 128.25 71.62, 0 71.62 M0 71.62 C0 45.66, 0 19.71, 0 0 M0 71.62 C0 46.85, 0 22.09, 0 0" stroke="#1e1e1e" stroke-width="1" fill="none"></path></g><g transform="translate(240.14967145304922 165.87845436389344) rotate(0 45.983333587646484 24.999999999999986)"><text x="45.983333587646484" y="0" font-family="Virgil, Segoe UI Emoji" font-size="20px" fill="#1e1e1e" text-anchor="middle" style="white-space: pre;" direction="ltr" dominant-baseline="text-before-edge">MB BIOS</text><text x="45.983333587646484" y="25" font-family="Virgil, Segoe UI Emoji" font-size="20px" fill="#1e1e1e" text-anchor="middle" style="white-space: pre;" direction="ltr" dominant-baseline="text-before-edge">(64k)</text></g><g stroke-linecap="round" transform="translate(155.16999158002727 462.070845620217) rotate(0 130.96301346066844 72.10149425463192)"><path d="M0 0 C77.11 0, 154.22 0, 261.93 0 M0 0 C60.72 0, 121.43 0, 261.93 0 M261.93 0 C261.93 39.38, 261.93 78.76, 261.93 144.2 M261.93 0 C261.93 34.51, 261.93 69.02, 261.93 144.2 M261.93 144.2 C197.81 144.2, 133.69 144.2, 0 144.2 M261.93 144.2 C182.59 144.2, 103.26 144.2, 0 144.2 M0 144.2 C0 100.81, 0 57.42, 0 0 M0 144.2 C0 113.55, 0 82.9, 0 0" stroke="#1e1e1e" stroke-width="1" fill="none"></path></g><g transform="translate(183.84134091716055 509.17233987484894) rotate(0 102.29166412353516 25)"><text x="102.29166412353516" y="0" font-family="Virgil, Segoe UI Emoji" font-size="20px" fill="#1e1e1e" text-anchor="middle" style="white-space: pre;" direction="ltr" dominant-baseline="text-before-edge">RAM de video legado</text><text x="102.29166412353516" y="25" font-family="Virgil, Segoe UI Emoji" font-size="20px" fill="#1e1e1e" text-anchor="middle" style="white-space: pre;" direction="ltr" dominant-baseline="text-before-edge">(128k)</text></g><g stroke-linecap="round" transform="translate(155.16999158002727 609.3768513151421) rotate(0 130.96301346066844 270.1353726614316)"><path d="M0 0 C96.2 0, 192.39 0, 261.93 0 M0 0 C88.13 0, 176.26 0, 261.93 0 M261.93 0 C261.93 149.94, 261.93 299.88, 261.93 540.27 M261.93 0 C261.93 195.91, 261.93 391.83, 261.93 540.27 M261.93 540.27 C195.33 540.27, 128.73 540.27, 0 540.27 M261.93 540.27 C184.02 540.27, 106.11 540.27, 0 540.27 M0 540.27 C0 373.95, 0 207.62, 0 0 M0 540.27 C0 360.76, 0 181.25, 0 0" stroke="#1e1e1e" stroke-width="1" fill="none"></path></g><g transform="translate(20.600006103515625 142.47187217336787) rotate(0 61.858333587646484 12.5)"><text x="61.858333587646484" y="0" font-family="Virgil, Segoe UI Emoji" font-size="20px" fill="#1e1e1e" text-anchor="middle" style="white-space: pre;" direction="ltr" dominant-baseline="text-before-edge">0x000FFFFF</text></g><g transform="translate(501.19500680759734 149.54154630051895) rotate(0 147.3749999999999 37.499999999999986)"><text x="0" y="0" font-family="Virgil, Segoe UI Emoji" font-size="20px" fill="#1e1e1e" text-anchor="start" style="white-space: pre;" direction="ltr" dominant-baseline="text-before-edge">- Maior endereço possível</text><text x="0" y="25" font-family="Virgil, Segoe UI Emoji" font-size="20px" fill="#1e1e1e" text-anchor="start" style="white-space: pre;" direction="ltr" dominant-baseline="text-before-edge">em 16bit Real Mode (20 bits).</text><text x="0" y="50" font-family="Virgil, Segoe UI Emoji" font-size="20px" fill="#1e1e1e" text-anchor="start" style="white-space: pre;" direction="ltr" dominant-baseline="text-before-edge">- Primeiro 1MB da RAM.</text></g><g transform="translate(11.466667175292969 213.80876830774423) rotate(0 66.42500305175781 12.5)"><text x="66.42500305175781" y="0" font-family="Virgil, Segoe UI Emoji" font-size="20px" fill="#1e1e1e" text-anchor="middle" style="white-space: pre;" direction="ltr" dominant-baseline="text-before-edge">0x000F0000</text></g><g transform="translate(10.766670227050781 443.80876830774423) rotate(0 67.125 12.5)"><text x="67.125" y="0" font-family="Virgil, Segoe UI Emoji" font-size="20px" fill="#1e1e1e" text-anchor="middle" style="white-space: pre;" direction="ltr" dominant-baseline="text-before-edge">0x000C0000</text></g><g transform="translate(10 378.80876830774423) rotate(0 67.89167022705078 12.5)"><text x="67.89167022705078" y="0" font-family="Virgil, Segoe UI Emoji" font-size="20px" fill="#1e1e1e" text-anchor="middle" style="white-space: pre;" direction="ltr" dominant-baseline="text-before-edge">0x000C8000</text></g><g transform="translate(10.650001525878906 593.8087683077442) rotate(0 67.24166870117188 12.5)"><text x="67.24166870117188" y="0" font-family="Virgil, Segoe UI Emoji" font-size="20px" fill="#1e1e1e" text-anchor="middle" style="white-space: pre;" direction="ltr" dominant-baseline="text-before-edge">0x000A0000</text></g><g transform="translate(10.325004577636719 1139.2998892021537) rotate(0 67.56666564941406 12.5)"><text x="67.56666564941406" y="0" font-family="Virgil, Segoe UI Emoji" font-size="20px" fill="#1e1e1e" text-anchor="middle" style="white-space: pre;" direction="ltr" dominant-baseline="text-before-edge">0x00000000</text></g><g transform="translate(873.3275547787925 1003.2520248673219) rotate(0 33.150001525878906 12.5)"><text x="33.150001525878906" y="0" font-family="Virgil, Segoe UI Emoji" font-size="20px" fill="#2f9e44" text-anchor="middle" style="white-space: pre;" direction="ltr" dominant-baseline="text-before-edge">0x000</text></g><g transform="translate(879.3775578305504 841.2520248673219) rotate(0 30.125 12.5)"><text x="30.125" y="0" font-family="Virgil, Segoe UI Emoji" font-size="20px" fill="#2f9e44" text-anchor="middle" style="white-space: pre;" direction="ltr" dominant-baseline="text-before-edge">0x1B8</text></g><g transform="translate(881.7942257687828 795.3028844319759) rotate(0 28.91666603088379 12.5)"><text x="28.91666603088379" y="0" font-family="Virgil, Segoe UI Emoji" font-size="20px" fill="#2f9e44" text-anchor="middle" style="white-space: pre;" direction="ltr" dominant-baseline="text-before-edge">0x1BC</text></g><g transform="translate(881.1942234799644 757.35374399663) rotate(0 29.21666717529297 12.5)"><text x="29.21666717529297" y="0" font-family="Virgil, Segoe UI Emoji" font-size="20px" fill="#2f9e44" text-anchor="middle" style="white-space: pre;" direction="ltr" dominant-baseline="text-before-edge">0x1BE</text></g><g transform="translate(882.8442250058433 699.0112390250903) rotate(0 28.391666412353516 12.5)"><text x="28.391666412353516" y="0" font-family="Virgil, Segoe UI Emoji" font-size="20px" fill="#2f9e44" text-anchor="middle" style="white-space: pre;" direction="ltr" dominant-baseline="text-before-edge">0x1CE</text></g><g transform="translate(880.1275578305504 633.404603561284) rotate(0 29.75 12.5)"><text x="29.75" y="0" font-family="Virgil, Segoe UI Emoji" font-size="20px" fill="#2f9e44" text-anchor="middle" style="white-space: pre;" direction="ltr" dominant-baseline="text-before-edge">0x1DE</text></g><g transform="translate(882.244222717025 565.4300333436111) rotate(0 28.691667556762695 12.5)"><text x="28.691667556762695" y="0" font-family="Virgil, Segoe UI Emoji" font-size="20px" fill="#2f9e44" text-anchor="middle" style="white-space: pre;" direction="ltr" dominant-baseline="text-before-edge">0x1EE</text></g><g transform="translate(884.244222717025 501.4554631259381) rotate(0 27.691667556762695 12.5)"><text x="27.691667556762695" y="0" font-family="Virgil, Segoe UI Emoji" font-size="20px" fill="#2f9e44" text-anchor="middle" style="white-space: pre;" direction="ltr" dominant-baseline="text-before-edge">0x1FE</text></g><g transform="translate(886.244222717025 464.5361499273208) rotate(0 26.691667556762695 12.5)"><text x="26.691667556762695" y="0" font-family="Virgil, Segoe UI Emoji" font-size="20px" fill="#2f9e44" text-anchor="middle" style="white-space: pre;" direction="ltr" dominant-baseline="text-before-edge">0x1FF</text></g><g transform="translate(961.9735818571558 485.28299729926596) rotate(0 117.78333282470703 10)"><text x="117.78333282470703" y="0" font-family="Virgil, Segoe UI Emoji" font-size="16px" fill="#1e1e1e" text-anchor="middle" style="white-space: pre;" direction="ltr" dominant-baseline="text-before-edge">Assinatura do boot (2 bytes)</text></g><g transform="translate(960.8485818571558 778.1340162360353) rotate(0 118.90833282470703 10)"><text x="118.90833282470703" y="0" font-family="Virgil, Segoe UI Emoji" font-size="16px" fill="#1e1e1e" text-anchor="middle" style="white-space: pre;" direction="ltr" dominant-baseline="text-before-edge">Reserva de 2 bytes (opcional)</text></g><g transform="translate(975.990244454812 820.6914941189482) rotate(0 103.76667022705078 10)"><text x="103.76667022705078" y="0" font-family="Virgil, Segoe UI Emoji" font-size="16px" fill="#1e1e1e" text-anchor="middle" style="white-space: pre;" direction="ltr" dominant-baseline="text-before-edge">UDID (4 bytes - opcional)</text></g><g transform="translate(1003.8902459806909 897.6337160210632) rotate(0 75.86666870117188 20)"><text x="75.86666870117188" y="0" font-family="Virgil, Segoe UI Emoji" font-size="16px" fill="#1e1e1e" text-anchor="middle" style="white-space: pre;" direction="ltr" dominant-baseline="text-before-edge">Código do boot</text><text x="75.86666870117188" y="20" font-family="Virgil, Segoe UI Emoji" font-size="16px" fill="#1e1e1e" text-anchor="middle" style="white-space: pre;" direction="ltr" dominant-baseline="text-before-edge">(400 a 446 bytes)</text></g><g transform="translate(930.8735833830347 352.63371602106315) rotate(0 148.88333129882812 22.5)"><text x="148.88333129882812" y="0" font-family="Virgil, Segoe UI Emoji" font-size="36px" fill="#2f9e44" text-anchor="middle" style="white-space: pre;" direction="ltr" dominant-baseline="text-before-edge">Formato do MBR</text></g><g transform="translate(915.523577279519 404.63371602106315) rotate(0 164.23333740234375 12.5)"><text x="164.23333740234375" y="0" font-family="Virgil, Segoe UI Emoji" font-size="20px" fill="#1e1e1e" text-anchor="middle" style="white-space: pre;" direction="ltr" dominant-baseline="text-before-edge">https://wiki.osdev.org/MBR_(x86)</text></g><g transform="translate(1009.5652490324487 527.1917943339204) rotate(0 70.19166564941406 20)"><text x="70.19166564941406" y="0" font-family="Virgil, Segoe UI Emoji" font-size="16px" fill="#1e1e1e" text-anchor="middle" style="white-space: pre;" direction="ltr" dominant-baseline="text-before-edge">Partition Table 4</text><text x="70.19166564941406" y="20" font-family="Virgil, Segoe UI Emoji" font-size="16px" fill="#1e1e1e" text-anchor="middle" style="white-space: pre;" direction="ltr" dominant-baseline="text-before-edge">(16 bytes)</text></g><g transform="translate(1009.2319131559839 590.2110536998821) rotate(0 70.5250015258789 20)"><text x="70.5250015258789" y="0" font-family="Virgil, Segoe UI Emoji" font-size="16px" fill="#1e1e1e" text-anchor="middle" style="white-space: pre;" direction="ltr" dominant-baseline="text-before-edge">Partition Table 3</text><text x="70.5250015258789" y="20" font-family="Virgil, Segoe UI Emoji" font-size="16px" fill="#1e1e1e" text-anchor="middle" style="white-space: pre;" direction="ltr" dominant-baseline="text-before-edge">(16 bytes)</text></g><g transform="translate(1008.9819131559839 653.2303130658438) rotate(0 70.7750015258789 20)"><text x="70.7750015258789" y="0" font-family="Virgil, Segoe UI Emoji" font-size="16px" fill="#1e1e1e" text-anchor="middle" style="white-space: pre;" direction="ltr" dominant-baseline="text-before-edge">Partition Table 2</text><text x="70.7750015258789" y="20" font-family="Virgil, Segoe UI Emoji" font-size="16px" fill="#1e1e1e" text-anchor="middle" style="white-space: pre;" direction="ltr" dominant-baseline="text-before-edge">(16 bytes)</text></g><g transform="translate(1012.5152459806909 716.2495724318055) rotate(0 67.24166870117188 20)"><text x="67.24166870117188" y="0" font-family="Virgil, Segoe UI Emoji" font-size="16px" fill="#1e1e1e" text-anchor="middle" style="white-space: pre;" direction="ltr" dominant-baseline="text-before-edge">Partition Table 1</text><text x="67.24166870117188" y="20" font-family="Virgil, Segoe UI Emoji" font-size="16px" fill="#1e1e1e" text-anchor="middle" style="white-space: pre;" direction="ltr" dominant-baseline="text-before-edge">(16 bytes)</text></g><g transform="translate(17.049257417440458 728.0670162718355) rotate(0 61.45000076293945 12.5)"><text x="61.45000076293945" y="0" font-family="Virgil, Segoe UI Emoji" font-size="20px" fill="#1e1e1e" text-anchor="middle" style="white-space: pre;" direction="ltr" dominant-baseline="text-before-edge">0x0008000</text></g><g transform="translate(425.3250045776367 1141.2546820982984) rotate(0 32 10)"><text x="0" y="0" font-family="Virgil, Segoe UI Emoji" font-size="16px" fill="#e03131" text-anchor="start" style="white-space: pre;" direction="ltr" dominant-baseline="text-before-edge">0x0000</text></g><g transform="translate(212.35037405900903 1125.3125874501038) rotate(0 75.7249984741211 10)"><text x="0" y="0" font-family="Virgil, Segoe UI Emoji" font-size="16px" fill="#e03131" text-anchor="start" style="white-space: pre;" direction="ltr" dominant-baseline="text-before-edge">Real Mode IVT (1k)</text></g><g transform="translate(168.35037405900903 1098.3125874501038) rotate(0 119.5 10)"><text x="0" y="0" font-family="Virgil, Segoe UI Emoji" font-size="16px" fill="#e03131" text-anchor="start" style="white-space: pre;" direction="ltr" dominant-baseline="text-before-edge">BIOS Data Area (256 bytes)</text></g><g transform="translate(182.4513459185116 1071.2613683758905) rotate(0 103.69999694824219 10)"><text x="103.69999694824219" y="0" font-family="Virgil, Segoe UI Emoji" font-size="16px" fill="#e03131" text-anchor="middle" style="white-space: pre;" direction="ltr" dominant-baseline="text-before-edge">RAM Convencional (29.75k)</text></g><g transform="translate(186.92569024083355 900.1340008980695) rotate(0 98.42500305175781 10)"><text x="98.42500305175781" y="0" font-family="Virgil, Segoe UI Emoji" font-size="16px" fill="#e03131" text-anchor="middle" style="white-space: pre;" direction="ltr" dominant-baseline="text-before-edge">RAM Convencional (480k)</text></g><g transform="translate(176.6840291690562 665.1340008980695) rotate(0 108.66666412353516 20)"><text x="108.66666412353516" y="0" font-family="Virgil, Segoe UI Emoji" font-size="16px" fill="#e03131" text-anchor="middle" style="white-space: pre;" direction="ltr" dominant-baseline="text-before-edge">Extended BIOS Data Area</text><text x="108.66666412353516" y="20" font-family="Virgil, Segoe UI Emoji" font-size="16px" fill="#e03131" text-anchor="middle" style="white-space: pre;" direction="ltr" dominant-baseline="text-before-edge">(128k)</text></g><g transform="translate(189.4263443926327 1037.9138865984291) rotate(0 96.7249984741211 10)"><text x="96.7249984741211" y="0" font-family="Virgil, Segoe UI Emoji" font-size="16px" fill="#2f9e44" text-anchor="middle" style="white-space: pre;" direction="ltr" dominant-baseline="text-before-edge">Boot Sector (512 bytes)</text></g><g transform="translate(431.7980340596064 1116.0390951936674) rotate(0 31.616666793823242 10)"><text x="0" y="0" font-family="Virgil, Segoe UI Emoji" font-size="16px" fill="#e03131" text-anchor="start" style="white-space: pre;" direction="ltr" dominant-baseline="text-before-edge">0x0400</text></g><g transform="translate(430.1094176730055 1080.0271870699257) rotate(0 31.441667556762695 10)"><text x="0" y="0" font-family="Virgil, Segoe UI Emoji" font-size="16px" fill="#e03131" text-anchor="start" style="white-space: pre;" direction="ltr" dominant-baseline="text-before-edge">0x0500</text></g><g transform="translate(425.3250045776367 1052.2546820982984) rotate(0 30.450000762939453 10)"><text x="0" y="0" font-family="Virgil, Segoe UI Emoji" font-size="16px" fill="#2f9e44" text-anchor="start" style="white-space: pre;" direction="ltr" dominant-baseline="text-before-edge">0x7C00</text></g><g transform="translate(425.3250045776367 1026.8543573112174) rotate(0 30.691667556762695 10)"><text x="0" y="0" font-family="Virgil, Segoe UI Emoji" font-size="16px" fill="#2f9e44" text-anchor="start" style="white-space: pre;" direction="ltr" dominant-baseline="text-before-edge">0x7E00</text></g><g stroke-linecap="round" transform="translate(156.167042781168 230.4553732239433) rotate(0 130.20486955459967 78.34888209298879)"><path d="M0 0 C76.83 0, 153.65 0, 260.41 0 M0 0 C53.57 0, 107.14 0, 260.41 0 M260.41 0 C260.41 47.76, 260.41 95.53, 260.41 156.7 M260.41 0 C260.41 62.22, 260.41 124.44, 260.41 156.7 M260.41 156.7 C186.6 156.7, 112.79 156.7, 0 156.7 M260.41 156.7 C176.5 156.7, 92.6 156.7, 0 156.7 M0 156.7 C0 119.15, 0 81.61, 0 0 M0 156.7 C0 105.34, 0 53.98, 0 0" stroke="#1e1e1e" stroke-width="1" fill="none"></path></g><g transform="translate(188.58024821223262 283.8042553169321) rotate(0 97.79166412353516 25)"><text x="97.79166412353516" y="0" font-family="Virgil, Segoe UI Emoji" font-size="20px" fill="#1e1e1e" text-anchor="middle" style="white-space: pre;" direction="ltr" dominant-baseline="text-before-edge">Expansões do BIOS</text><text x="97.79166412353516" y="25" font-family="Virgil, Segoe UI Emoji" font-size="20px" fill="#1e1e1e" text-anchor="middle" style="white-space: pre;" direction="ltr" dominant-baseline="text-before-edge">(160k)</text></g><g stroke-linecap="round" transform="translate(156.167042781168 390.9405890928344) rotate(0 130.20486955459967 33.26420778002566)"><path d="M0 0 C86.91 0, 173.82 0, 260.41 0 M0 0 C100.89 0, 201.77 0, 260.41 0 M260.41 0 C260.41 19.48, 260.41 38.96, 260.41 66.53 M260.41 0 C260.41 20.23, 260.41 40.46, 260.41 66.53 M260.41 66.53 C197.36 66.53, 134.31 66.53, 0 66.53 M260.41 66.53 C195.17 66.53, 129.93 66.53, 0 66.53 M0 66.53 C0 46.52, 0 26.5, 0 0 M0 66.53 C0 50.07, 0 33.6, 0 0" stroke="#1e1e1e" stroke-width="1" fill="none"></path></g><g transform="translate(199.9302466863537 411.70479687286) rotate(0 86.44166564941406 12.5)"><text x="86.44166564941406" y="0" font-family="Virgil, Segoe UI Emoji" font-size="20px" fill="#1e1e1e" text-anchor="middle" style="white-space: pre;" direction="ltr" dominant-baseline="text-before-edge">Video BIOS (32k)</text></g><g stroke-linecap="round"><g transform="translate(416.594171690944 1121.3486033300355) rotate(0 -130.82276227896466 0)"><path d="M0 0 C-102.96 0, -205.92 0, -261.65 0 M0 0 C-64.09 0, -128.18 0, -261.65 0" stroke="#e03131" stroke-width="1" fill="none"></path></g></g><mask></mask><g stroke-linecap="round"><g transform="translate(416.594171690944 1097.3486033300355) rotate(0 -130.82276227896466 0)"><path d="M0 0 C-86.56 0, -173.12 0, -261.65 0 M0 0 C-100.72 0, -201.44 0, -261.65 0" stroke="#e03131" stroke-width="1" fill="none"></path></g></g><mask></mask><g stroke-linecap="round"><g transform="translate(417.39482126510643 1059.797731396689) rotate(0 -130.82276227896466 0)"><path d="M0 0 C-57.2 0, -114.39 0, -261.65 0 M0 0 C-62.32 0, -124.64 0, -261.65 0" stroke="#2f9e44" stroke-width="1" fill="none"></path></g></g><mask></mask><g stroke-linecap="round"><g transform="translate(416.594171690944 1035.4393994373636) rotate(0 -130.82276227896466 0)"><path d="M0 0 C-71.18 0, -142.37 0, -261.65 0 M0 0 C-53.49 0, -106.98 0, -261.65 0" stroke="#2f9e44" stroke-width="1" fill="none"></path></g></g><mask></mask><g stroke-linecap="round"><g transform="translate(417.2017596442731 740.8397242244447) rotate(0 -130.18575467834728 0)"><path d="M0 0 C-103.7 0, -207.4 0, -260.37 0 M0 0 C-94.52 0, -189.05 0, -260.37 0" stroke="#e03131" stroke-width="1" fill="none"></path></g></g><mask></mask><g transform="translate(542.8584241512183 1071.7822505245927) rotate(0 10.158333778381348 10)"><text x="0" y="0" font-family="Virgil, Segoe UI Emoji" font-size="16px" fill="#2f9e44" text-anchor="start" style="white-space: pre;" direction="ltr" dominant-baseline="text-before-edge">SP</text></g><g stroke-linecap="round"><g transform="translate(534.0724377531274 1080.8871773960368) rotate(0 -19.002561659354342 -6.201409084834381)"><path d="M0 0 C-8.85 -2.52, -15.87 -5.17, -38.01 -12.4 M0 0 C-14.03 -4.57, -28.31 -9.4, -38.01 -12.4" stroke="#2f9e44" stroke-width="1" fill="none"></path></g><g transform="translate(534.0724377531274 1080.8871773960368) rotate(0 -19.002561659354342 -6.201409084834381)"><path d="M-18.03 -13.21 C-23.12 -13.08, -26.43 -13.01, -38.01 -12.4 M-18.03 -13.21 C-25.41 -12.88, -33.03 -12.83, -38.01 -12.4" stroke="#2f9e44" stroke-width="1" fill="none"></path></g><g transform="translate(534.0724377531274 1080.8871773960368) rotate(0 -19.002561659354342 -6.201409084834381)"><path d="M-22.19 -0.18 C-26.48 -2.74, -28.93 -5.35, -38.01 -12.4 M-22.19 -0.18 C-28.01 -4.67, -34.09 -9.43, -38.01 -12.4" stroke="#2f9e44" stroke-width="1" fill="none"></path></g></g><mask></mask><g stroke-linecap="round"><g transform="translate(486.1085457319457 195.14954808750787) rotate(0 -29.686301607136215 -16.911308751425395)"><path d="M0 0 C-22.77 -15.39, -46.66 -27.49, -59.37 -33.82 M0 0 C-12.66 -8.06, -24.5 -15.23, -59.37 -33.82" stroke="#1e1e1e" stroke-width="1" fill="none"></path></g><g transform="translate(486.1085457319457 195.14954808750787) rotate(0 -29.686301607136215 -16.911308751425395)"><path d="M-34.64 -30.15 C-43.83 -33.64, -54.32 -34.08, -59.37 -33.82 M-34.64 -30.15 C-40.15 -31.77, -44.81 -32.68, -59.37 -33.82" stroke="#1e1e1e" stroke-width="1" fill="none"></path></g><g transform="translate(486.1085457319457 195.14954808750787) rotate(0 -29.686301607136215 -16.911308751425395)"><path d="M-42.79 -15.11 C-48.92 -24.37, -56.26 -30.62, -59.37 -33.82 M-42.79 -15.11 C-46.59 -19.8, -49.56 -23.83, -59.37 -33.82" stroke="#1e1e1e" stroke-width="1" fill="none"></path></g></g><mask></mask><g transform="translate(91.37647561777567 10) rotate(0 187.69166564941406 22.5)"><text x="187.69166564941406" y="0" font-family="Virgil, Segoe UI Emoji" font-size="36px" fill="#1971c2" text-anchor="middle" style="white-space: pre;" direction="ltr" dominant-baseline="text-before-edge">BIOS Memory Layout</text></g><g transform="translate(75.03480081308817 65) rotate(0 204.03334045410156 12.5)"><text x="204.03334045410156" y="0" font-family="Virgil, Segoe UI Emoji" font-size="20px" fill="#1e1e1e" text-anchor="middle" style="white-space: pre;" direction="ltr" dominant-baseline="text-before-edge">https://wiki.osdev.org/Memory_Map_(x86)</text></g><g transform="translate(502.3205878607696 594.6591336455757) rotate(0 107.80000305175781 25)"><text x="0" y="0" font-family="Virgil, Segoe UI Emoji" font-size="20px" fill="#1e1e1e" text-anchor="start" style="white-space: pre;" direction="ltr" dominant-baseline="text-before-edge">Primeiros 640k</text><text x="0" y="25" font-family="Virgil, Segoe UI Emoji" font-size="20px" fill="#1e1e1e" text-anchor="start" style="white-space: pre;" direction="ltr" dominant-baseline="text-before-edge">(antiga área do DOS)</text></g><g stroke-linecap="round"><g transform="translate(489.45597316615635 624.4600498189452) rotate(0 -33.92066963508171 -6.99402147456459)"><path d="M0 0 C-20.48 -5.47, -37.38 -9.84, -67.84 -13.99 M0 0 C-17.4 -4.56, -34.28 -7.04, -67.84 -13.99" stroke="#1e1e1e" stroke-width="1" fill="none"></path></g><g transform="translate(489.45597316615635 624.4600498189452) rotate(0 -33.92066963508171 -6.99402147456459)"><path d="M-43.13 -17.77 C-51.32 -18.07, -55.91 -17.36, -67.84 -13.99 M-43.13 -17.77 C-49.44 -17.47, -55.07 -15.31, -67.84 -13.99" stroke="#1e1e1e" stroke-width="1" fill="none"></path></g><g transform="translate(489.45597316615635 624.4600498189452) rotate(0 -33.92066963508171 -6.99402147456459)"><path d="M-46.48 -1 C-53.69 -6.08, -57.33 -10.16, -67.84 -13.99 M-46.48 -1 C-51.77 -5.05, -56.52 -7.27, -67.84 -13.99" stroke="#1e1e1e" stroke-width="1" fill="none"></path></g></g><mask></mask><g stroke-linecap="round" transform="translate(953.6734416382333 476.19207211683465) rotate(0 126.75827648114 269.9720797930992)"><path d="M0 0 C98.67 0, 197.34 0, 253.52 0 M0 0 C89.92 0, 179.84 0, 253.52 0 M253.52 0 C253.52 120.36, 253.52 240.72, 253.52 539.94 M253.52 0 C253.52 159.79, 253.52 319.58, 253.52 539.94 M253.52 539.94 C154.91 539.94, 56.29 539.94, 0 539.94 M253.52 539.94 C192.99 539.94, 132.47 539.94, 0 539.94 M0 539.94 C0 340.05, 0 140.16, 0 0 M0 539.94 C0 326.84, 0 113.74, 0 0" stroke="#1e1e1e" stroke-width="1" fill="none"></path></g><g stroke-linecap="round"><g transform="translate(954.56397497222 853.6424111161228) rotate(0 126.2356779010197 0)"><path d="M0 0 C89.68 0, 179.37 0, 252.47 0 M0 0 C64.74 0, 129.47 0, 252.47 0" stroke="#1e1e1e" stroke-width="1" fill="none"></path></g></g><mask></mask><g stroke-linecap="round"><g transform="translate(954.56397497222 807.6424111161228) rotate(0 126.2356779010197 0)"><path d="M0 0 C83.41 0, 166.81 0, 252.47 0 M0 0 C66.25 0, 132.49 0, 252.47 0" stroke="#1e1e1e" stroke-width="1" fill="none"></path></g></g><mask></mask><g stroke-linecap="round"><g transform="translate(954.56397497222 768.6424111161228) rotate(0 126.2356779010197 0)"><path d="M0 0 C95.64 0, 191.28 0, 252.47 0 M0 0 C67.18 0, 134.36 0, 252.47 0" stroke="#1e1e1e" stroke-width="1" fill="none"></path></g></g><mask></mask><g stroke-linecap="round"><g transform="translate(954.56397497222 705.7257444494562) rotate(0 126.2356779010197 0)"><path d="M0 0 C59.14 0, 118.28 0, 252.47 0 M0 0 C83.84 0, 167.68 0, 252.47 0" stroke="#1e1e1e" stroke-width="1" fill="none"></path></g></g><mask></mask><g stroke-linecap="round"><g transform="translate(954.56397497222 642.8090777827896) rotate(0 126.2356779010197 0)"><path d="M0 0 C100.23 0, 200.47 0, 252.47 0 M0 0 C79.77 0, 159.55 0, 252.47 0" stroke="#1e1e1e" stroke-width="1" fill="none"></path></g></g><mask></mask><g stroke-linecap="round"><g transform="translate(954.56397497222 579.892411116123) rotate(0 126.2356779010197 0)"><path d="M0 0 C100.93 0, 201.87 0, 252.47 0 M0 0 C88.09 0, 176.18 0, 252.47 0" stroke="#1e1e1e" stroke-width="1" fill="none"></path></g></g><mask></mask><g stroke-linecap="round"><g transform="translate(954.56397497222 513.642411116123) rotate(0 126.2356779010197 0)"><path d="M0 0 C94.23 0, 188.45 0, 252.47 0 M0 0 C56.03 0, 112.06 0, 252.47 0" stroke="#1e1e1e" stroke-width="1" fill="none"></path></g></g><mask></mask><g stroke-linecap="round"><g transform="translate(405.1668292415625 1060.072880704929) rotate(0 -1.1368683772161603e-13 7.208798389479398)"><path d="M0 0 C0 3.27, 0 6.53, 0 14.42 M0 0 C0 4.2, 0 8.39, 0 14.42" stroke="#2f9e44" stroke-width="1" fill="none"></path></g><g transform="translate(405.1668292415625 1060.072880704929) rotate(0 -1.1368683772161603e-13 7.208798389479398)"><path d="M-2.47 7.64 C-1.91 9.18, -1.35 10.71, 0 14.42 M-2.47 7.64 C-1.75 9.62, -1.03 11.59, 0 14.42" stroke="#2f9e44" stroke-width="1" fill="none"></path></g><g transform="translate(405.1668292415625 1060.072880704929) rotate(0 -1.1368683772161603e-13 7.208798389479398)"><path d="M2.47 7.64 C1.91 9.18, 1.35 10.71, 0 14.42 M2.47 7.64 C1.75 9.62, 1.03 11.59, 0 14.42" stroke="#2f9e44" stroke-width="1" fill="none"></path></g></g><mask></mask><g stroke-linecap="round"><g transform="translate(416.93795775233775 1121.1810523448357) rotate(0 6.606441838975911 2.4963962038494856)"><path d="M0 0 C3.34 1.26, 6.68 2.53, 13.21 4.99 M0 0 C3.89 1.47, 7.77 2.94, 13.21 4.99" stroke="#e03131" stroke-width="1" fill="none"></path></g></g><mask></mask><g stroke-linecap="round"><g transform="translate(417.2193938167709 1097.3777878745773) rotate(0 5.302496071363748 -2.301673140330081)"><path d="M0 0 C3.19 -1.39, 6.38 -2.77, 10.6 -4.6 M0 0 C3.46 -1.5, 6.93 -3.01, 10.6 -4.6" stroke="#e03131" stroke-width="1" fill="none"></path></g></g><mask></mask><g stroke-linecap="round"><g transform="translate(417.1963390956944 1108.6428712647967) rotate(0 9.005334097930927 -0.06670617850318195)"><path d="M0 0 C6.02 -0.04, 12.05 -0.09, 18.01 -0.13 M0 0 C4.26 -0.03, 8.53 -0.06, 18.01 -0.13" stroke="#2f9e44" stroke-width="1" fill="none"></path></g></g><mask></mask><g transform="translate(438.8327870569317 1098.770356846324) rotate(0 61.96666717529297 10)"><text x="61.96666717529297" y="0" font-family="Virgil, Segoe UI Emoji" font-size="16px" fill="#2f9e44" text-anchor="middle" style="white-space: pre;" direction="ltr" dominant-baseline="text-before-edge">0x046C (Timer)</text></g><g stroke-linecap="round"><g transform="translate(488.90168202468294 1060.9657968356432) rotate(0 188.37927603750518 -23.282831869804113)"><path d="M0 0 C88.33 -10.92, 176.66 -21.83, 376.76 -46.57 M0 0 C103.04 -12.74, 206.09 -25.47, 376.76 -46.57" stroke="#2f9e44" stroke-width="1" fill="none"></path></g><g transform="translate(488.90168202468294 1060.9657968356432) rotate(0 188.37927603750518 -23.282831869804113)"><path d="M354.49 -35.2 C359.71 -37.86, 364.93 -40.53, 376.76 -46.57 M354.49 -35.2 C360.58 -38.31, 366.67 -41.42, 376.76 -46.57" stroke="#2f9e44" stroke-width="1" fill="none"></path></g><g transform="translate(488.90168202468294 1060.9657968356432) rotate(0 188.37927603750518 -23.282831869804113)"><path d="M352.39 -52.17 C358.11 -50.86, 363.82 -49.54, 376.76 -46.57 M352.39 -52.17 C359.06 -50.64, 365.72 -49.1, 376.76 -46.57" stroke="#2f9e44" stroke-width="1" fill="none"></path></g></g><mask></mask></svg>